PathFileType	4	(X/Y/Z)	KinectSkeleton.trc																																																	
DataRate	CameraRate	NumFrames	NumMarkers	Units	OrigDataRate	OrigDataStartFrame	OrigNumFrames																																													
60	60	8	17	mm	60	372	300																																													
Frame#	Time	Neck			ShoulderMid			R.Shoulder			L.Shoulder			R.Elbow			L.Elbow			R.Wrist			L.Wrist			HipCenter			R.Hip			L.Hip			R.Knee			L.Knee			R.Ankle			L.Ankle			R.Foot			L.Foot		
		X1	Y1	Z1	X2	Y2	Z2	X3	Y3	Z3	X4	Y4	Z4	X5	Y5	Z5	X6	Y6	Z6	X7	Y7	Z7	X8	Y8	Z8	X9	Y9	Z9	X10	Y10	Z10	X11	Y11	Z11	X12	Y12	Z12	X13	Y13	Z13	X14	Y14	Z14	X15	Y15	Z15	X16	Y16	Z16	X17	Y17	Z17
																																																				
372	25.156	-1184.277	1472.208	450.337	-1184.277	1472.208	450.337	-1226.652	1411.079	616.964	-1142.979	1398.203	278.456	-1334.676	1152.677	702.679	-1190.051	1122.941	210.293	-1248.927	935.525	774.678	-1079.844	909.546	233.236	-1222.411	915.428	485.23	-1238.616	921.657	568.979	-1204.44	908.521	392.355	-1298.762	511.793	606.936	-1246.382	496.059	353.163	-1393.53	121.268	622.785	-1329.992	109.465	309.04	-1260.841	26.168	696.919	-1156.349	21.237	315.369
373	25.233	-1180.992	1469.748	447.241	-1180.992	1469.748	447.241	-1223.404	1409.539	613.298	-1139.796	1397.223	275.525	-1335.828	1153.526	697.119	-1184.907	1123.65	203.44	-1251.744	936.472	768.574	-1075.085	910.611	222.645	-1218.451	914.986	484.369	-1236.328	922.114	567.408	-1198.627	907.081	392.282	-1297.414	513.739	604.496	-1247.396	496.867	352.357	-1385.365	123.163	623.58	-1326.792	110.706	308.797	-1253.591	26.252	695.507	-1155.079	20.216	315.53
374	25.296	-1178.995	1470.511	444.698	-1178.995	1470.511	444.698	-1219.409	1410.432	611.446	-1139.824	1396.456	272.833	-1333.235	1154.516	694.259	-1178.817	1121.988	199.92	-1253.383	936.302	767.499	-1064.447	910.681	212.235	-1215.153	915.535	484.837	-1233.283	923.226	567.822	-1195.047	907.006	392.81	-1290.558	514.175	606.213	-1245.946	496.855	352.386	-1388.989	125.616	619.254	-1329.646	111.433	308.239	-1261.052	24.599	692.7	-1157.699	21.154	315.105
375	25.372	-1178.83	1469.788	443.481	-1178.83	1469.788	443.481	-1218.056	1409.48	610.358	-1137.054	1395.611	272.418	-1332.868	1154.703	694.667	-1179.5	1122.336	197.682	-1254.308	936.279	768.171	-1065.975	910.772	210.487	-1213.138	915.138	484.556	-1230.26	922.829	567.701	-1194.15	906.61	392.352	-1290.376	514.449	606.106	-1243.559	496.479	352.538	-1390.592	126.6	618.984	-1327.985	111.424	308.793	-1263.914	25.987	694.852	-1156.447	20.582	315.01
376	25.435	-1173.394	1468.348	441.69	-1173.394	1468.348	441.69	-1214.21	1407.831	607.823	-1134.041	1395.201	270.306	-1327.977	1153.87	693.806	-1182.004	1122.862	197.9	-1247.593	936.769	767.514	-1070.725	910.594	208.84	-1211.442	915.16	484.051	-1229.691	923.355	566.718	-1191.205	906.071	392.378	-1289.353	515.948	606.458	-1242.493	497.174	351.623	-1393.13	129.918	618.798	-1326.603	112.88	308.355	-1268.755	27.911	695.7	-1156.379	20.387	313.05
377	25.496	-1172.303	1470.973	439.872	-1172.303	1470.973	439.872	-1212.086	1408.645	606.156	-1134.066	1396.659	267.99	-1325.571	1154.414	693.702	-1181.455	1122.839	198.563	-1244.791	937.025	767.751	-1073.92	908.038	208.118	-1210.677	916.785	482.758	-1229.101	925.357	565.525	-1190.246	907.279	390.973	-1285.66	516.851	607.207	-1242.07	497.555	350.662	-1392.419	130.764	618.592	-1328.824	113.152	306.254	-1268.409	26.778	694.262	-1158.754	19.9	315.521
378	25.558	-1173.556	1472.182	438.771	-1173.556	1472.182	438.771	-1212.652	1410.821	605.863	-1134.846	1393.265	268.277	-1323.517	1154.495	691.714	-1176.128	1118.253	198.363	-1243.818	935.963	764.44	-1069.923	902.59	209.839	-1210.584	917.326	481.624	-1228.36	925.244	564.694	-1190.87	908.544	389.503	-1287.76	516.638	605.998	-1244.714	498.522	350.176	-1391.759	129.403	619.336	-1328.958	112.819	308.382	-1265.914	27.137	694.784	-1158.396	19.791	314.957
379	25.637	-1170.221	1469.711	437.811	-1170.221	1469.711	437.811	-1209.862	1408.974	604.606	-1132.634	1390.159	267.738	-1323.083	1154.85	691.936	-1176.766	1116.158	197.934	-1244.239	936.686	765.073	-1067.959	902.454	211.45	-1209.164	916.157	481.728	-1227.45	924.339	564.487	-1188.886	907.083	389.952	-1288.981	516.805	604.951	-1241.698	497.733	350.956	-1384.952	128.513	622.911	-1328.837	113.577	308.359	-1258.311	25.938	695.719	-1159.348	19.414	315.074
